<svg version="1.1" xmlns="http://www.w3.org/2000/svg" xmlns:xlink="http://www.w3.org/1999/xlink" x="0px" y="0px" viewBox="0 0 64 64" xml:space="preserve" class="list-icon" width="64"  height="64" ><style type="text/css" fill="#F7F8FA">.st0{display: none}</style><g class="st0" id="Layer_2" fill="#F7F8FA"><rect class="st1" width="64" height="64" fill="#F7F8FA"></rect></g><g id="Layer_1" fill="#F7F8FA"><path class="st2" d="M44.3,32c-0.2-7.7-3.3-12.6-5.9-15.4c-3-3.2-5.9-4.3-6-4.4L32,12.1l-0.3,0.1c-0.1,0-3.1,1.2-6,4.4
		c-2.6,2.8-5.7,7.7-5.9,15.4H9.9v2c0,2.7,2.1,4.9,4.8,5v8c0,2.8,2.2,5,5,5H44c2.8,0,5-2.2,5-5V39h0c2.8,0,5.1-2.3,5.1-5.1v-2H44.3z
		 M42.5,32h-5.2c-0.1-8.4-1.5-13.5-2.7-16.4C37.6,17.9,42.2,22.8,42.5,32z M35.4,32h-6.7c0.1-10.4,2.2-15.4,3.4-17.3
		C33.1,16.6,35.2,21.6,35.4,32z M29.5,15.6c-1.2,2.9-2.6,8-2.7,16.4h-5.2C21.8,22.8,26.4,17.9,29.5,15.6z M47.1,47
		c0,1.7-1.4,3.1-3.1,3.1H19.7c-1.7,0-3.1-1.4-3.1-3.1V39h30.6V47z M52.2,34c0,1.8-1.4,3.2-3.2,3.2h0H15c-1.8,0-3.2-1.4-3.2-3.2v-0.1
		L52.2,34L52.2,34z" fill="#F7F8FA"></path></g></svg>