<?xml version="1.0" encoding="iso-8859-1"?>
<svg version="1.1" id="Layer_1" fill="#F7F8FA" xmlns="http://www.w3.org/2000/svg" xmlns:xlink="http://www.w3.org/1999/xlink" x="0px" y="0px"
	 viewBox="0 0 447.2 447.2" style="enable-background:new 0 0 447.2 447.2;" xml:space="preserve">
<g>
	<g>
		<path d="M301.394,364.9l-0.6-0.5v0l-2.8-10.5c-2.4-9-2.4-19.5-2.4-30.5V323c-1.3-23.9,6.6-72.8,6.7-73.3l0.1-0.8
			c1.2-20.6,0.4-41.4-2.7-67.5l-2.7-16.6l-0.1-0.4c-1.4-6.4-2.8-13-5.7-19.8l-31.9-93.5c0.4-0.8,1.5-2.3,2.2-3.3
			c2.5-3.4,5.9-8,5.9-14.1v-20c0-7.8-6.1-13.7-14.2-13.7h-59.3c-8.1,0-14.2,5.9-14.2,13.7v20c0,5.3,3,9.6,5.5,13.1
			c0.9,1.2,2.3,3.2,2.7,4.3l-31.9,93.6c-2.9,6.8-4.3,13.4-5.7,19.8l-2.8,16.6v0.3c-3.1,26.1-4,46.9-2.7,67.5l0.1,0.8
			c0.1,0.5,7.9,49.4,6.7,73.3v0.4c0,11,0,21.5-2.4,30.5l-2.8,10.5l-0.1,0.5c-1.6,11.6-2.7,22.9,0.1,34.9l4,28.4v0.3
			c2,11.2,12,18.7,24.9,18.7h97.1c12.9,0,22.9-7.5,24.9-18.7l4-28.7C304.094,387.9,302.894,376.5,301.394,364.9z M202.094,54.9
			L202.094,54.9l0.2-0.8c1.4-6.5-2.4-12-5.2-15.9c-1-1.4-2.5-3.6-2.7-4.5V15.1h57.8v18.7c0,1.2-1.6,3.3-3,5.2
			c-2.7,3.6-6.4,8.6-5,15.1l0.1,0.4l24,70.4h-90.2L202.094,54.9z M280.494,323.6L280.494,323.6c0,11.5,0,23.3,3,34.2l2.6,9.5
			c1.4,10.4,2.3,19.8,0.1,29.2l-4.2,29.3c-0.8,3.9-4.5,6.2-10.1,6.2h-97.1c-5.6,0-9.4-2.3-10.1-6.2l-4-28.5l-0.1-0.7
			c-2.3-9.4-1.3-18.8,0.1-29.2l2.6-9.5c2.9-10.9,3-22.7,3-34.2c1.3-24.7-6-70.9-6.8-75.9c-1.1-19.5-0.3-39.4,2.7-64.3l2.6-15.9
			c1.3-6,2.5-11.6,4.9-17.2l0.1-0.3l3.5-10.2h100.4l3.4,9.9l0.2,0.6c2.4,5.5,3.6,11.2,4.9,17.2l2.6,15.9c3,24.9,3.8,44.8,2.7,64.3
			C286.494,252.7,279.194,299,280.494,323.6z"/>
	</g>
</g>
<g>
</g>
<g>
</g>
<g>
</g>
<g>
</g>
<g>
</g>
<g>
</g>
<g>
</g>
<g>
</g>
<g>
</g>
<g>
</g>
<g>
</g>
<g>
</g>
<g>
</g>
<g>
</g>
<g>
</g>
</svg>
