<svg version="1.1" xmlns="http://www.w3.org/2000/svg" xmlns:xlink="http://www.w3.org/1999/xlink" x="0px" y="0px" viewBox="0 0 64 64" xml:space="preserve" class="list-icon" width="64"  height="64" ><style type="text/css" fill="#CBC6BF">.st0{display: none}</style><style class="darkreader darkreader--sync" media="screen" fill="#CBC6BF"></style><g class="st0" id="Layer_2" fill="#CBC6BF"><rect class="st1" x="0" width="64" height="64" fill="#CBC6BF"></rect></g><g id="Layer_1" fill="#CBC6BF"><g fill="#CBC6BF"><path class="st2" d="M46,16l-1.8-4.1c-0.2-0.4-0.4-0.7-0.8-0.9V9.3c0-0.9-0.7-1.6-1.6-1.6H22.1c-0.9,0-1.6,0.7-1.6,1.6v1.8
			c-0.3,0.2-0.5,0.5-0.7,0.8L18,16c-0.3,0.6-0.4,1.3-0.4,1.9v32.6c0,1.6,1.3,2.8,2.8,2.8h0.1v1.4c0,0.9,0.7,1.6,1.6,1.6h19.4
			c0.9,0,1.6-0.7,1.6-1.6v-1.4h0.5c1.6,0,2.8-1.3,2.8-2.8V17.9C46.4,17.3,46.2,16.6,46,16z M22.4,9.6h19.1v1H22.4V9.6z M41.2,54.4
			H22.4v-1h18.8V54.4z M44.5,50.6c0,0.5-0.4,0.9-0.9,0.9h-0.5H20.6h-0.1c-0.5,0-0.9-0.4-0.9-0.9V17.9c0-0.4,0.1-0.8,0.2-1.2l1.8-4.1
			c0.1-0.1,0.2-0.2,0.3-0.2h20.3c0.1,0,0.2,0.1,0.3,0.2l1.8,4.1c0.2,0.4,0.2,0.8,0.2,1.2V50.6z" fill="#CBC6BF"></path><rect class="st2" x="22.4" y="16.9" width="19.4" height="1.3" fill="#CBC6BF"></rect></g></g></svg>