<svg version="1.1" xmlns="http://www.w3.org/2000/svg" xmlns:xlink="http://www.w3.org/1999/xlink" x="0px" y="0px" viewBox="0 0 64 64" xml:space="preserve" class="list-icon" width="64"  height="64" ><style type="text/css" fill="#CBC6BF">.st0{display: none}</style><style class="darkreader darkreader--sync" media="screen" fill="#CBC6BF"></style><g class="st0" id="Layer_2" fill="#CBC6BF"><rect class="st1" x="0" width="64" height="64" fill="#CBC6BF"></rect></g><g id="Layer_1" fill="#CBC6BF"><path class="st2" d="M45.6,10.5c-0.9-1.1-2.3-1.7-3.7-1.7c-0.4-0.4-0.9-0.8-1.4-1c-0.6-2.2-2.6-3.9-5-3.9c-1.6,0-3.1,0.8-4.1,2
		c-0.5-0.2-1-0.2-1.5-0.2c-1.5,0-2.8,0.6-3.8,1.7c-0.1,0-0.3,0-0.4,0c-0.9,0-1.7,0.2-2.5,0.6c-0.9-0.2-1.7-0.1-2.5,0.2
		c-2.1,0.7-3.5,2.7-3.5,4.9c0,1.9,1.1,3.5,2.6,4.4c2.4,8.8,3.5,22.8,3.5,41.6V60h18.1v-0.9c0-19.1,1.1-32.1,3.3-40.8l-0.2,0
		c1.3-0.8,2.2-2.2,2.4-3.8C47,13.1,46.6,11.6,45.6,10.5z M25.1,58.2c0-0.7,0-1.5,0-2.2h14.4c0,0.7,0,1.4,0,2.2H25.1z M39.4,54.1
		c0,0,0.1,0,0.1-0.1c0,0,0,0,0,0.1H39.4z M39.5,51.6C39.5,51.6,39.5,51.6,39.5,51.6c-0.6,1-3.5,2-7.3,2c-3.7,0-6.3-0.9-7.1-1.8
		c-0.3-14.6-1.4-26-3.3-33.7c0.1,0,0.3,0,0.4,0c0.1,0,0.2,0,0.2,0c1,0.6,2.1,1,3.2,1c1.2,0,2.5-0.4,3.5-1.1c0.9,0.7,2,1.1,3.2,1.1
		c1.3,0,2.5-0.5,3.4-1.3c1,0.5,2.1,0.8,3.3,0.6c0.8,0.5,1.7,0.8,2.7,0.8h0c0.2,0,0.4,0,0.7,0c0,0,0.1,0,0.1,0
		C40.8,26.6,39.8,37.1,39.5,51.6z M45,14.3c-0.2,1.5-1.3,2.7-2.8,2.9c-0.1,0-0.3,0-0.4,0h0c-0.7,0-1.4-0.2-1.9-0.6l-0.4-0.3L39,16.4
		c-0.3,0.1-0.5,0.1-0.8,0.1c-0.6,0-1.2-0.2-1.8-0.5c-0.6-0.4-1.3-0.3-1.8,0.2c-0.6,0.7-1.5,1-2.4,1c-0.8,0-1.6-0.3-2.2-0.9
		c-0.5-0.5-1.3-0.5-1.9,0c-0.7,0.6-1.6,0.9-2.6,0.9c-0.9,0-1.7-0.3-2.4-0.8L23,16.2l-0.4,0c-0.1,0-0.3,0-0.4,0
		c-1.8,0-3.2-1.4-3.3-3.2c0-1.4,0.9-2.6,2.3-3.1c0.6-0.2,1.2-0.2,1.8-0.1l0.4,0.1l0.3-0.2c0.6-0.3,1.3-0.5,1.9-0.5
		c0.2,0,0.4,0,0.6,0.1l0.6,0.1L27.2,9c0.6-0.8,1.6-1.4,2.6-1.4c0.4,0,0.8,0.1,1.2,0.2c0.2,0.1,0.3,0.1,0.5,0.1
		c0.5,0,0.9-0.2,1.2-0.6c0.6-0.9,1.6-1.5,2.7-1.5c1.6,0,3,1.2,3.2,2.8l0.1,0.6l0.5,0.2c0.6,0.2,1.1,0.6,1.4,1l0.3,0.4l0.5,0
		c0.1,0,0.1,0,0.2,0c0.9,0,1.8,0.4,2.4,1.1C44.8,12.5,45.1,13.4,45,14.3z" fill="#CBC6BF"></path></g></svg>