<svg version="1.1" xmlns="http://www.w3.org/2000/svg" xmlns:xlink="http://www.w3.org/1999/xlink" x="0px" y="0px" viewBox="0 0 64 64" xml:space="preserve" class="list-icon" width="64"  height="64" ><style type="text/css" fill="#F7F8FA">.st0{display: none}</style><g class="st0" id="Layer_2" fill="#F7F8FA"><rect class="st1" x="0" width="64" height="64" fill="#F7F8FA"></rect></g><g id="Layer_1" fill="#F7F8FA"><g fill="#F7F8FA"><path class="st2" d="M37.7,5c0-1.6-1.3-2.9-2.9-2.9h-5.6c-1.6,0-2.9,1.3-2.9,2.9v2.9h11.4V5z M35.8,6.1h-7.6V5c0-0.6,0.5-1,1-1
			h5.6c0.6,0,1,0.5,1,1V6.1z" fill="#F7F8FA"></path><path class="st2" d="M41.8,40v-8.5c0-1.4-0.3-2.8-0.8-4.1l-2.5-6c-0.7-1.6-1.1-3.2-1.3-4.9l-0.9-7.3h-1.9l0.3,2.7h-5.5l0.3-2.7
			h-1.9l-0.9,7.3c-0.2,1.7-0.6,3.3-1.3,4.9l-2.5,6c-0.5,1.3-0.8,2.7-0.8,4.1V40c0,1.8,0.5,3.6,1.4,5.2c1,1.8,1.1,4,0.2,5.8L23.3,52
			c-0.7,1.5-1.1,3.1-1.1,4.7V57c0,2.7,2.2,4.9,4.9,4.9h9.8c2.7,0,4.9-2.2,4.9-4.9v-0.3c0-1.6-0.4-3.3-1.1-4.7l-0.4-0.9
			c-0.9-1.8-0.8-4,0.2-5.8C41.3,43.7,41.8,41.9,41.8,40z M24.8,28.1l2.5-6c0.7-1.7,1.2-3.6,1.4-5.4l0.4-3.6h5.8l0.4,3.6
			c0.2,1.9,0.7,3.7,1.4,5.4l2.5,6c0.1,0.2,0.2,0.4,0.2,0.7h-15C24.6,28.5,24.7,28.3,24.8,28.1z M38.8,44.4c-1.3,2.3-1.4,5.2-0.2,7.6
			l0.4,0.9c0.6,1.2,0.9,2.6,0.9,3.9V57c0,1.7-1.3,3-3,3h-9.8c-1.7,0-3-1.3-3-3v-0.3c0-1.3,0.3-2.7,0.9-3.9l0.4-0.9
			c1.2-2.4,1.1-5.2-0.2-7.6c-0.4-0.7-0.7-1.4-0.9-2.2h15.3C39.5,42.9,39.2,43.7,38.8,44.4z M39.9,40c0,0.3,0,0.6,0,0.9H24.1
			c0-0.3,0-0.6,0-0.9v-8.5c0-0.5,0-1,0.1-1.5h15.6c0.1,0.5,0.1,1,0.1,1.5V40z" fill="#F7F8FA"></path></g></g></svg>