<svg version="1.1" xmlns="http://www.w3.org/2000/svg" xmlns:xlink="http://www.w3.org/1999/xlink" x="0px" y="0px" viewBox="0 0 64 64" xml:space="preserve" class="list-icon" width="64"  height="64" ><style type="text/css" fill="#F7F8FA">.st0{display: none}</style><g class="st0" id="Layer_2" fill="#F7F8FA"><rect class="st1" x="0" width="64" height="64" fill="#F7F8FA"></rect></g><g id="Layer_1" fill="#F7F8FA"><path class="st2" d="M49.3,24.7H33.7V9.6c6.5,0.8,11.6,6.4,11.6,13.2h1.9c0-7.8-5.9-14.2-13.5-15.1V4.1h-3.4v3.6
		C22.7,8.6,16.8,15,16.8,22.8h1.9c0-6.8,5.1-12.3,11.6-13.2v15.1H14.7v6.5h3.5l2.7,26.8c0.1,1.1,1,2,2.2,2h17.8c1.1,0,2.1-0.8,2.2-2
		l2.7-26.8h3.5V24.7z M41.2,57.7c0,0.2-0.1,0.3-0.3,0.3H23.1c-0.2,0-0.3-0.1-0.3-0.3l-2.7-26.6h10.2v22h3.4v-22h10.2L41.2,57.7z
		 M47.4,29.3H46H18h-1.5v-2.7h30.9V29.3z" fill="#F7F8FA"></path></g></svg>