<svg version="1.1" xmlns="http://www.w3.org/2000/svg" xmlns:xlink="http://www.w3.org/1999/xlink" x="0px" y="0px" viewBox="0 0 64 64" xml:space="preserve" class="list-icon" width="64"  height="64" ><style type="text/css" fill="#F7F8FA">.st0{display: none}</style><g class="st0" id="Layer_2" fill="#F7F8FA"><rect class="st1" x="0" width="64" height="64" fill="#F7F8FA"></rect></g><g id="Layer_1" fill="#F7F8FA"><path class="st2" d="M47.3,12.7c2.5,0,4.5-2,4.5-4.5c0-1.2-0.5-2.4-1.3-3.2l1-1.6l-1.6-1l-1,1.6c-0.5-0.2-1-0.3-1.6-0.3
		c-2.5,0-4.5,2-4.5,4.5c0,1.2,0.5,2.3,1.2,3.1l-1.7,2.6l-28.5,0c-0.6,0-1.2,0.3-1.4,0.9c-0.3,0.6-0.2,1.2,0.2,1.7l14.7,17.3
		c0.4,0.5,0.7,1.2,0.7,1.8L28,56c-1.6,0.5-4.3,1.4-6.8,2.1c-1.2,0.4-2.2,0.7-3.1,1c-0.6,0.2-0.9,0.8-0.8,1.4
		c0.1,0.6,0.6,1.1,1.3,1.1l24.7,0h0c0.6,0,1.1-0.4,1.2-1c0.1-0.6-0.3-1.2-0.9-1.4l-9.9-3.1l0-20.2c0-0.7,0.2-1.3,0.7-1.8l15.1-17.4
		c0.4-0.5,0.5-1.1,0.2-1.7c-0.3-0.6-0.8-0.9-1.4-0.9l-3.7,0l1-1.5C46.1,12.6,46.7,12.7,47.3,12.7z M47.6,15.8L32.9,32.6
		c-0.7,0.9-1.2,1.9-1.2,3.1l0,21.6l7.4,2.3l-16.5,0c2.6-0.8,5.4-1.7,6.7-2.1l0.6-0.2l0-21.7c0-1.1-0.4-2.2-1.1-3L14.5,15.8l26.6,0
		l-3.6,5.4l1.6,1l4.3-6.4L47.6,15.8z M47.3,5.6c1.4,0,2.6,1.2,2.6,2.6c0,1.4-1.2,2.6-2.6,2.6c-1.4,0-2.6-1.2-2.6-2.6
		C44.7,6.8,45.8,5.6,47.3,5.6z" fill="#F7F8FA"></path></g></svg>