<svg version="1.1" xmlns="http://www.w3.org/2000/svg" xmlns:xlink="http://www.w3.org/1999/xlink" x="0px" y="0px" viewBox="0 0 64 64" xml:space="preserve" class="list-icon" width="64"  height="64" ><style type="text/css" fill="#E4E2DE">.st0{display: none}</style><style class="darkreader darkreader--sync" media="screen" fill="#E4E2DE"></style><g class="st0" id="Layer_2" fill="#E4E2DE"><rect class="st1" width="64" height="64" fill="#E4E2DE"></rect></g><g id="Layer_1" fill="#E4E2DE"><g fill="#E4E2DE"><path class="st2" d="M53.6,29h-0.1c0,0,0-0.1,0-0.1c0-0.9-0.4-1.7-1.3-2.4c-0.1-1.7-1.8-3.1-5-4.1c-0.2-0.7-0.5-1.4-0.9-1.9
			c-0.1-0.1-0.5-0.7-0.9-1L42,15.7c-0.6-0.7-1.7-1.2-2.8-1.2c-1.1,0-2.1,0.4-2.8,1.2l-2.7,3c-0.6-0.7-1.6-1.1-2.7-1.1h0
			c-0.7,0-1.4,0.2-2,0.5l-2.5-2.8c-0.6-0.7-1.7-1.2-2.8-1.2h0c-1.1,0-2.1,0.4-2.8,1.2l-3.3,3.8c-0.4,0.3-0.9,1-0.9,1
			c-0.5,0.7-0.9,1.6-1,2.6c-2.6,1-4,2.3-4,3.8c-0.9,0.7-1.3,1.6-1.3,2.4c0,0,0,0.1,0,0.1h-0.1v14.4h0.1c0.3,4.2,10.9,6.4,21.4,6.4
			s21.2-2.2,21.4-6.4h0.1V29z M13.9,29.5c3.4,2.2,10.8,3.4,18.1,3.4s14.7-1.1,18.1-3.4v1c-2.7,1.6-9.2,3.1-18.1,3.1
			s-15.4-1.5-18.1-3.1V29.5z M47.2,24.4c2.2,0.8,3,1.7,3.1,2.2h-0.1V27c-0.8,1.4-5.6,3.2-12.9,3.7c0.3-0.3,0.6-0.6,0.9-1
			c0.4,0,0.8,0.1,1.2,0.1C43.3,29.8,46.6,27.4,47.2,24.4z M37.9,16.9c0.3-0.3,0.8-0.5,1.4-0.5c0.6,0,1.1,0.2,1.4,0.5l3.4,3.8
			l0.1,0.1c0.2,0.2,0.5,0.6,0.7,0.9c0.4,0.4,0.6,1.2,0.6,1.9c0,2.4-2.7,4.4-6.1,4.4c-0.1,0-0.2,0-0.3,0c0.1-0.4,0.2-0.8,0.2-1.3
			c0-1.1-0.4-2.3-1-3c-0.1-0.1-0.5-0.7-0.9-1L35,20.1L37.9,16.9z M31.1,19.5c0.6,0,1.1,0.2,1.4,0.5l3.4,3.8l0.1,0.1
			c0.2,0.2,0.5,0.6,0.7,0.9c0.4,0.4,0.6,1.2,0.6,1.9c0,2-1.9,3.8-4.6,4.3c-0.2,0-0.4,0-0.6,0c-0.9,0-1.8,0-2.6-0.1
			c-2.6-0.6-4.4-2.3-4.4-4.2c0-0.7,0.2-1.4,0.6-1.9c0.2-0.3,0.6-0.7,0.7-0.8l3.4-3.9C30,19.7,30.5,19.5,31.1,19.5z M18.3,21.3
			c0.2-0.3,0.6-0.7,0.7-0.8l3.4-3.9c0.3-0.3,0.8-0.5,1.4-0.5c0.6,0,1.1,0.2,1.4,0.5l2.5,2.9L25,22.6c-0.4,0.3-0.9,1-0.9,1
			c-0.6,0.8-1,1.9-1,3.1c0,0.3,0,0.6,0.1,0.9c-3.1-0.2-5.4-2.1-5.4-4.4C17.7,22.5,18,21.7,18.3,21.3z M16.1,24.7
			c0.9,2.8,4,4.8,7.8,4.8l0-0.2c0.3,0.4,0.6,0.9,1,1.2c-6.2-0.7-10.2-2.3-10.9-3.5v-0.8h0C14.1,25.8,14.8,25.2,16.1,24.7z M32,48
			c-11.9,0-19.6-2.8-19.6-4.7h-0.1V31.7c3.5,2.5,11.6,3.8,19.7,3.8s16.2-1.3,19.7-3.8v11.6h-0.1C51.6,45.2,43.9,48,32,48z" fill="#E4E2DE"></path><path class="st2" d="M22.5,22.4c0.2,0,0.3-0.1,0.4-0.2c1.6-1.6,1.5-3.4,1.5-3.5c0-0.3-0.3-0.6-0.7-0.6c-0.3,0-0.6,0.3-0.6,0.7
			c0,0,0.1,1.3-1.2,2.5c-0.2,0.2-0.3,0.6,0,0.9C22.2,22.4,22.4,22.4,22.5,22.4z" fill="#E4E2DE"></path><path class="st2" d="M37.9,22.8c0.2,0,0.3-0.1,0.4-0.2c1.6-1.6,1.5-3.4,1.5-3.5c0-0.3-0.3-0.6-0.7-0.6c-0.3,0-0.6,0.3-0.6,0.7
			c0,0,0.1,1.3-1.2,2.5c-0.2,0.2-0.3,0.6,0,0.9C37.6,22.7,37.7,22.8,37.9,22.8z" fill="#E4E2DE"></path><path class="st2" d="M28.7,24.8c-0.2,0.2-0.3,0.6,0,0.9c0.1,0.1,0.3,0.2,0.4,0.2c0.2,0,0.3-0.1,0.4-0.2c1.6-1.6,1.5-3.4,1.5-3.5
			c0-0.3-0.3-0.6-0.7-0.6c-0.3,0-0.6,0.3-0.6,0.7C29.9,22.4,29.9,23.7,28.7,24.8z" fill="#E4E2DE"></path><path class="st2" d="M33.1,25.5c0.1,0.3,0.3,0.5,0.6,0.5c0.1,0,0.1,0,0.2,0c0.3-0.1,0.5-0.4,0.5-0.8c-0.3-1.3-1.2-2.1-1.2-2.1
			c-0.3-0.2-0.6-0.2-0.9,0c-0.2,0.3-0.2,0.6,0,0.9C32.3,23.9,32.9,24.6,33.1,25.5z" fill="#E4E2DE"></path></g></g></svg>