<svg version="1.1" xmlns="http://www.w3.org/2000/svg" xmlns:xlink="http://www.w3.org/1999/xlink" x="0px" y="0px" viewBox="0 0 64 64" xml:space="preserve" class="list-icon" width="64"  height="64" ><style type="text/css" fill="#CBC6BF">.st0{display: none}</style><style class="darkreader darkreader--sync" media="screen" fill="#CBC6BF"></style><g class="st0" id="Layer_2" fill="#CBC6BF"><rect class="st1" x="0" width="64" height="64" fill="#CBC6BF"></rect></g><g id="Layer_1" fill="#CBC6BF"><path class="st2" d="M49.9,7.5c-0.4-0.5-1-0.8-1.7-0.8H15.7c-0.6,0-1.2,0.3-1.7,0.8c-0.4,0.5-0.6,1.1-0.5,1.7l3,41.6v6.4h30.9v-5.5
		l0.3-3.6c0.1-0.2,0.1-0.3,0-0.5l2.8-38.4C50.5,8.6,50.4,8,49.9,7.5z M45.5,55.4H18.4v-3.6h27.1V55.4z M48.6,9L48.6,9l-2.8,38.4
		c-1.5,1.3-6.9,2.5-13.8,2.5c-7.1,0-12.3-1.3-13.8-2.5L15.4,9.1l0-0.1c0-0.1,0-0.2,0.1-0.2c0,0,0.1-0.1,0.2-0.1h32.6
		c0.1,0,0.2,0.1,0.2,0.1C48.6,8.8,48.6,8.9,48.6,9z" fill="#CBC6BF"></path></g></svg>