<svg version="1.1" xmlns="http://www.w3.org/2000/svg" xmlns:xlink="http://www.w3.org/1999/xlink" x="0px" y="0px" viewBox="0 0 64 64" xml:space="preserve" class="list-icon" width="64"  height="64" ><style type="text/css" fill="#CBC6BF">.st0{display: none}</style><style class="darkreader darkreader--sync" media="screen" fill="#CBC6BF"></style><g class="st0" id="Layer_2" fill="#CBC6BF"><rect class="st1" width="64" height="64" fill="#CBC6BF"></rect></g><g id="Layer_1" fill="#CBC6BF"><g fill="#CBC6BF"><path class="st2" d="M37.4,4.1c0-1.6-1.3-2.8-2.8-2.8h-5.2c-1.6,0-2.8,1.3-2.8,2.8v5.9h10.8V4.1z M35.5,8.1h-7v-4
			c0-0.5,0.4-0.9,0.9-0.9h5.2c0.5,0,0.9,0.4,0.9,0.9V8.1z" fill="#CBC6BF"></path><path class="st2" d="M41.7,26c0-5.1-2.1-9.7-5.4-11.9v-2.9h-1.9v2.2h-5v-2.2h-1.9v2.9c-3.3,2.2-5.3,6.8-5.3,11.9
			c0,2.2,0.4,4.4,1.2,6.3c-0.8,1.2-1.2,2.5-1.2,3.9v23.1c0,1.9,1.5,3.4,3.4,3.4h12.5c1.9,0,3.4-1.5,3.4-3.4V36.2
			c0-1.4-0.4-2.8-1.1-3.9C41.3,30.2,41.7,28.1,41.7,26z M38.7,33c0.7,0.9,1.1,2,1.1,3.2v23.1c0,0.9-0.7,1.6-1.6,1.6H25.7
			c-0.9,0-1.6-0.7-1.6-1.6V36.2c0-1.2,0.4-2.3,1.1-3.2l0.3-0.4l-0.2-0.5c-0.8-1.9-1.2-3.9-1.2-6.1c0-4.5,1.8-8.6,4.7-10.4h6.4
			c2.8,1.8,4.7,5.9,4.7,10.4c0,2.1-0.4,4.1-1.3,6l-0.2,0.5L38.7,33z" fill="#CBC6BF"></path><path class="st2" d="M35.4,31.8C35.4,31.8,35.4,31.8,35.4,31.8l-6.8,0c-0.3,0-0.6,0.3-0.6,0.6c0,0.3,0.3,0.6,0.6,0.6c0,0,0,0,0,0
			l6.8,0c0.3,0,0.6-0.3,0.6-0.6C36,32,35.7,31.8,35.4,31.8z" fill="#CBC6BF"></path><path class="st2" d="M35.4,57.7C35.4,57.7,35.4,57.7,35.4,57.7l-6.8,0c-0.3,0-0.6,0.3-0.6,0.6c0,0.3,0.3,0.6,0.6,0.6c0,0,0,0,0,0
			l6.8,0c0.3,0,0.6-0.3,0.6-0.6C36,58,35.7,57.7,35.4,57.7z" fill="#CBC6BF"></path></g></g></svg>