<svg version="1.1" xmlns="http://www.w3.org/2000/svg" xmlns:xlink="http://www.w3.org/1999/xlink" x="0px" y="0px" viewBox="0 0 64 64" xml:space="preserve" class="list-icon" width="64"  height="64" ><style type="text/css" fill="#F7F8FA">.st0{display: none}</style><g class="st0" id="Layer_2" fill="#F7F8FA"><rect class="st1" x="0" width="64" height="64" fill="#F7F8FA"></rect></g><g id="Layer_1" fill="#F7F8FA"><g fill="#F7F8FA"><path class="st2" d="M48.5,23.6h-4.9v-1.1c1.6-0.9,2.7-2.6,3-4.5c0.2-1.7-0.4-3.3-1.5-4.6c-1.1-1.2-2.7-1.9-4.3-1.9
			c-0.5-0.5-1.1-0.9-1.8-1.3c-0.6-2.6-3-4.5-5.7-4.5c-1.9,0-3.6,0.9-4.7,2.4c-0.6-0.2-1.2-0.3-1.9-0.3c-1.7,0-3.3,0.7-4.4,2
			c-0.2,0-0.4,0-0.5,0c-1,0-2,0.2-2.9,0.7c-1-0.2-2-0.1-3,0.2c-2.4,0.8-4.1,3.1-4,5.6c0,2.4,1.5,4.4,3.5,5.3v26
			c-0.7,0.3-1.1,1-1.1,1.8v2.8c0,0.8,0.5,1.5,1.1,1.8v1.5c0,1.4,1.2,2.6,2.6,2.6h23c1.4,0,2.6-1.2,2.6-2.6v-1.5
			c0.7-0.3,1.1-1,1.1-1.8v-2.8c0-0.8-0.5-1.5-1.1-1.8v-1.4h4.9c2,0,3.7-1.7,3.7-3.7V27.3C52.2,25.3,50.5,23.6,48.5,23.6z M13.7,16.3
			c0-1.7,1.1-3.2,2.8-3.8c0.7-0.3,1.5-0.3,2.2-0.1l0.4,0.1l0.3-0.2c0.7-0.4,1.5-0.6,2.3-0.6c0.2,0,0.5,0,0.8,0.1l0.6,0.1l0.3-0.5
			c0.8-1,2-1.7,3.2-1.7c0.5,0,1,0.1,1.5,0.3c0.2,0.1,0.4,0.1,0.6,0.1c0.5,0,1-0.3,1.3-0.7c0.7-1.1,2-1.8,3.3-1.8
			c2,0,3.7,1.5,3.9,3.4l0.1,0.6l0.5,0.2c0.7,0.2,1.3,0.7,1.8,1.2l0.3,0.4l0.5,0c0.1,0,0.1,0,0.2,0c1.1,0,2.2,0.5,3,1.3
			c0.8,0.9,1.1,2,1,3.1c-0.2,1.8-1.6,3.3-3.4,3.5c-0.2,0-0.4,0-0.5,0c-0.9,0-1.7-0.3-2.4-0.8l-0.4-0.3l-0.4,0.1
			c-1.1,0.3-2.2,0.1-3.1-0.5c-0.6-0.4-1.4-0.3-1.9,0.2c-0.8,0.8-1.8,1.2-2.9,1.2c-1,0-2-0.4-2.7-1.1c-0.3-0.3-0.6-0.4-1-0.4
			c-0.4,0-0.7,0.1-1,0.4c-0.9,0.7-2,1.1-3.1,1.1c-1.1,0-2.1-0.3-2.9-1l-0.3-0.2l-0.4,0c-0.2,0-0.3,0-0.5,0
			C15.5,20.3,13.7,18.5,13.7,16.3z M42.8,52.3c0,0.1-0.1,0.2-0.2,0.2h-0.9v3.2c0,0.4-0.3,0.7-0.7,0.7h-23c-0.4,0-0.7-0.3-0.7-0.7
			v-3.2h-0.9c-0.1,0-0.2-0.1-0.2-0.2v-2.8c0-0.1,0.1-0.2,0.2-0.2h0.9V22.1c0.2,0,0.3,0,0.5,0c0.1,0,0.2,0,0.3,0
			c1.1,0.7,2.4,1.1,3.7,1.1c1.5,0,2.9-0.5,4.1-1.4c1.1,0.9,2.4,1.4,3.7,1.4c1.5,0,2.9-0.6,4-1.6c1.2,0.7,2.5,0.9,3.9,0.7
			c0.9,0.6,2,0.9,3.1,0.9h0c0.3,0,0.5,0,0.8,0c0.1,0,0.2,0,0.2,0v26.2h0.9c0.1,0,0.2,0.1,0.2,0.2V52.3z M50.3,42.6
			c0,1-0.8,1.8-1.8,1.8h-4.9V25.5h4.9c1,0,1.8,0.8,1.8,1.8V42.6z" fill="#F7F8FA"></path><path class="st2" d="M24.5,44.3c1.3,0,2.4-1.1,2.4-2.4V29.6c0-1.3-1.1-2.4-2.4-2.4c-1.3,0-2.4,1.1-2.4,2.4V42
			C22.2,43.3,23.2,44.3,24.5,44.3z M23.4,29.6c0-0.6,0.5-1.1,1.1-1.1s1.1,0.5,1.1,1.1V42c0,0.6-0.5,1.1-1.1,1.1s-1.1-0.5-1.1-1.1
			V29.6z" fill="#F7F8FA"></path><path class="st2" d="M33.9,44.3c1.3,0,2.4-1.1,2.4-2.4V29.6c0-1.3-1.1-2.4-2.4-2.4c-1.3,0-2.4,1.1-2.4,2.4V42
			C31.6,43.3,32.6,44.3,33.9,44.3z M32.8,29.6c0-0.6,0.5-1.1,1.1-1.1c0.6,0,1.1,0.5,1.1,1.1V42c0,0.6-0.5,1.1-1.1,1.1
			c-0.6,0-1.1-0.5-1.1-1.1V29.6z" fill="#F7F8FA"></path><path class="st2" d="M38.2,47.9H20.3c-0.3,0-0.6,0.3-0.6,0.6s0.3,0.6,0.6,0.6h17.8c0.3,0,0.6-0.3,0.6-0.6S38.5,47.9,38.2,47.9z" fill="#F7F8FA"></path><path class="st2" d="M38.2,52.6H20.3c-0.3,0-0.6,0.3-0.6,0.6s0.3,0.6,0.6,0.6h17.8c0.3,0,0.6-0.3,0.6-0.6S38.5,52.6,38.2,52.6z" fill="#F7F8FA"></path></g></g></svg>