<svg version="1.1" xmlns="http://www.w3.org/2000/svg" xmlns:xlink="http://www.w3.org/1999/xlink" x="0px" y="0px" viewBox="0 0 64 64" xml:space="preserve" class="list-icon" width="64"  height="64" ><style type="text/css" fill="#F7F8FA">.st0{display: none}</style><g class="st0" id="Layer_2" fill="#F7F8FA"><rect class="st1" width="64" height="64" fill="#F7F8FA"></rect></g><g id="Layer_1" fill="#F7F8FA"><g fill="#F7F8FA"><path class="st2" d="M57.3,30c0-2.1-1.4-6-6.1-6h0c-0.1,0-1.3,0-2.8,0.8V23H8.7l0,11.9c0,0.3-0.2,6.9,2.6,9.6l4.7,4.7H6.7v1.7
			h10.9h21.7h9.8v-1.7H41l4.7-4.7c0.7-0.7,1.3-1.7,1.6-2.8c0,0,0,0,0,0c0.7-0.4,4.2-2.6,6.5-4.7C54.2,36.7,57.2,34.2,57.3,30
			L57.3,30L57.3,30z M46.7,32H10.4v-2.4h36.3L46.7,32z M46.7,24.7l0,3.8H10.4v-3.8H46.7z M44.6,43.4l-5.9,5.9H18.4l-5.9-5.9
			c-1.9-1.8-2.2-6.7-2.1-8.4v-1.9h36.3V35C46.7,36.7,46.5,41.5,44.6,43.4z M52.9,35.7L52.9,35.7c-1.5,1.4-3.5,2.8-4.9,3.7
			c0.4-2.3,0.4-4.3,0.4-4.5v-8.2c1.5-1,2.8-1,2.8-1c0,0,0,0,0,0c4.2,0,4.4,3.8,4.4,4.3C55.5,33.5,52.9,35.7,52.9,35.7z" fill="#F7F8FA"></path><path class="st2" d="M32.6,15.7c0.6,1,0.6,2.2,0,3.2l-0.3,0.5c-0.2,0.3-0.1,0.6,0.2,0.8c0.1,0.1,0.2,0.1,0.3,0.1
			c0.2,0,0.4-0.1,0.5-0.2l0.3-0.5c0.9-1.3,0.9-3.1,0-4.4l-0.3-0.5c-0.6-1-0.6-2.2,0-3.2l0.6-0.9c0.2-0.3,0.1-0.6-0.2-0.8
			c-0.3-0.2-0.6-0.1-0.8,0.2l-0.6,0.9c-0.9,1.3-0.9,3.1,0,4.4L32.6,15.7z" fill="#F7F8FA"></path><path class="st2" d="M28.2,15.7c0.6,1,0.6,2.2,0,3.2l-0.3,0.5c-0.2,0.3-0.1,0.6,0.2,0.8c0.1,0.1,0.2,0.1,0.3,0.1
			c0.2,0,0.4-0.1,0.5-0.2l0.3-0.5c0.9-1.3,0.9-3.1,0-4.4l-0.3-0.5c-0.6-1-0.6-2.2,0-3.2l0.6-0.9c0.2-0.3,0.1-0.6-0.2-0.8
			c-0.3-0.2-0.6-0.1-0.8,0.2l-0.6,0.9c-0.9,1.3-0.9,3.1,0,4.4L28.2,15.7z" fill="#F7F8FA"></path><path class="st2" d="M23.8,15.7c0.6,1,0.6,2.2,0,3.2l-0.3,0.5c-0.2,0.3-0.1,0.6,0.2,0.8c0.1,0.1,0.2,0.1,0.3,0.1
			c0.2,0,0.4-0.1,0.5-0.2l0.3-0.5c0.9-1.3,0.9-3.1,0-4.4l-0.3-0.5c-0.6-1-0.6-2.2,0-3.2l0.6-0.9c0.2-0.3,0.1-0.6-0.2-0.8
			c-0.3-0.2-0.6-0.1-0.8,0.2l-0.6,0.9c-0.9,1.3-0.9,3.1,0,4.4L23.8,15.7z" fill="#F7F8FA"></path><polygon class="st2" points="40.5,52.7 16.5,52.7 16.5,52.1 14.9,52.1 14.9,54.4 42.2,54.4 42.2,52.1 40.5,52.1 		" fill="#F7F8FA"></polygon></g></g></svg>