<svg version="1.1" xmlns="http://www.w3.org/2000/svg" xmlns:xlink="http://www.w3.org/1999/xlink" x="0px" y="0px" viewBox="0 0 64 64" xml:space="preserve" class="list-icon" width="64"  height="64" ><style type="text/css" fill="#F7F8FA">.st0{display: none}</style><g class="st0" id="Layer_2" fill="#F7F8FA"><rect class="st1" x="0" width="64" height="64" fill="#F7F8FA"></rect></g><g id="Layer_1" fill="#F7F8FA"><path class="st2" d="M44.7,58.3l-9.9-3.1l0-15.4c10-2.6,8.7-13.1,8.7-13.2L40.6,5.1c-0.1-1.1-1.1-1.9-2.2-1.9H25.5
		c-1.1,0-2,0.8-2.2,1.9l-2.9,21.5c0,0.1-1.3,10.6,8.7,13.2l0,15.4c-1.5,0.5-4.2,1.3-6.6,2.1c-1.2,0.4-2.3,0.7-3.2,1
		c-0.6,0.2-1,0.8-0.9,1.4c0.1,0.6,0.6,1.1,1.2,1.1l24.7,0c0.6,0,1.1-0.4,1.2-1C45.7,59.1,45.3,58.5,44.7,58.3z M23.7,58.9
		c2.6-0.8,5.4-1.7,6.6-2.1l0.6-0.2l0-18.2l-0.7-0.2c-9-1.9-8-10.9-7.9-11.3l2.9-21.5c0-0.2,0.2-0.3,0.3-0.3h12.9
		c0.2,0,0.3,0.1,0.3,0.3l2.9,21.5c0.1,0.4,1.1,9.4-8,11.3l-0.7,0.2l0,18.2l7.4,2.3L23.7,58.9z" fill="#F7F8FA"></path></g></svg>