<svg version="1.1" xmlns="http://www.w3.org/2000/svg" xmlns:xlink="http://www.w3.org/1999/xlink" x="0px" y="0px" viewBox="0 0 64 64" xml:space="preserve" class="list-icon" width="64"  height="64" ><style type="text/css" fill="#F7F8FA">.st0{display: none}</style><g class="st0" id="Layer_2" fill="#F7F8FA"><rect class="st1" x="0" width="64" height="64" fill="#F7F8FA"></rect></g><g id="Layer_1" fill="#F7F8FA"><path class="st2" d="M48,41.9l3.7-25.8c0.1-0.6-0.1-1.3-0.5-1.7c-0.4-0.5-1-0.8-1.7-0.8H14.5c-0.6,0-1.2,0.3-1.7,0.8
		c-0.4,0.5-0.6,1.1-0.5,1.7l4.2,29.1v5.1h30.9v-4.7L48,41.9C48,41.9,48,41.9,48,41.9z M14.2,15.6c0,0,0.1-0.1,0.2-0.1h35.1
		c0.1,0,0.2,0.1,0.2,0.1c0,0,0.1,0.1,0.1,0.2l-3.7,25.6c-0.7,1.2-5.9,2.8-14.1,2.8c-8.2,0-13.5-1.6-14.1-2.8l-3.7-25.6
		C14.1,15.7,14.2,15.7,14.2,15.6z M45.5,48.5H18.4v-2.4h27.1V48.5z" fill="#F7F8FA"></path></g></svg>