<svg version="1.1" xmlns="http://www.w3.org/2000/svg" xmlns:xlink="http://www.w3.org/1999/xlink" x="0px" y="0px" viewBox="0 0 64 64" xml:space="preserve" class="list-icon" width="64"  height="64" ><style type="text/css" fill="#F7F8FA">.st0{display: none}</style><g class="st0" id="Layer_2" fill="#F7F8FA"><rect class="st1" width="64" height="64" fill="#F7F8FA"></rect></g><g id="Layer_1" fill="#F7F8FA"><g fill="#F7F8FA"><path class="st2" d="M42.6,37.9c0.3-0.4,0.4-0.8,0.4-1.3V22.1c0-1.8-0.7-3.6-2-4.9l-4.6-4.9v-1.3h-1.9V13l0.8,0.8h-6.6l0.8-0.8
			v-2.1h-1.9v1.3L23,17.2c-1.3,1.3-2,3.1-2,4.9v14.5c0,0.5,0.1,0.9,0.4,1.3l0.9,1.2c0.1,0.1,0.1,0.3,0,0.4l-0.6,0.8
			c-0.6,0.8-0.6,1.8,0,2.6l0.6,0.8c0.1,0.1,0.1,0.3,0,0.4L21.7,45c-0.6,0.8-0.6,1.8,0,2.6l0.6,0.8c0.1,0.1,0.1,0.3,0,0.4l-0.6,0.8
			c-0.6,0.8-0.6,1.8,0,2.6l0.6,0.8c0.1,0.1,0.1,0.3,0,0.4l-0.9,1.2C21.1,55,21,55.5,21,55.9v2.8c0,1.6,1.3,2.8,2.8,2.8h16.4
			c1.6,0,2.8-1.3,2.8-2.8v-2.8c0-0.5-0.1-0.9-0.4-1.3l-0.9-1.2c-0.1-0.1-0.1-0.3,0-0.4l0.6-0.8c0.6-0.8,0.6-1.8,0-2.6l-0.6-0.8
			c-0.1-0.1-0.1-0.3,0-0.4l0.6-0.8c0.6-0.8,0.6-1.8,0-2.6l-0.6-0.8c-0.1-0.1-0.1-0.3,0-0.4l0.6-0.8c0.6-0.8,0.6-1.8,0-2.6l-0.6-0.8
			c-0.1-0.1-0.1-0.3,0-0.4L42.6,37.9z M41.1,34.7H22.9V24.1h18.3V34.7z M24.3,18.5l3.2-3.4h9l3.2,3.4c0.9,1,1.4,2.3,1.4,3.6v0.8
			H22.9v-0.8C22.9,20.7,23.4,19.4,24.3,18.5z M40.2,40.6l0.6,0.8c0.1,0.1,0.1,0.3,0,0.4l-0.6,0.8c-0.6,0.8-0.6,1.8,0,2.6l0.6,0.8
			c0.1,0.1,0.1,0.3,0,0.4l-0.6,0.8c-0.6,0.8-0.6,1.8,0,2.6l0.6,0.8c0.1,0.1,0.1,0.3,0,0.4l-0.6,0.8c-0.6,0.8-0.6,1.8,0,2.6l0.9,1.2
			c0,0.1,0.1,0.1,0.1,0.2v2.8c0,0.5-0.4,0.9-0.9,0.9H23.8c-0.5,0-0.9-0.4-0.9-0.9v-2.8c0-0.1,0-0.1,0.1-0.2l0.9-1.2
			c0.6-0.8,0.6-1.8,0-2.6l-0.6-0.8c-0.1-0.1-0.1-0.3,0-0.4l0.6-0.8c0.6-0.8,0.6-1.8,0-2.6l-0.6-0.8c-0.1-0.1-0.1-0.3,0-0.4l0.6-0.8
			c0.6-0.8,0.6-1.8,0-2.6l-0.6-0.8c-0.1-0.1-0.1-0.3,0-0.4l0.6-0.8c0.6-0.8,0.6-1.8,0-2.6l-0.9-1.2c0-0.1-0.1-0.1-0.1-0.2V36h18.3
			v0.6c0,0.1,0,0.1-0.1,0.2L40.2,38C39.6,38.8,39.6,39.8,40.2,40.6z" fill="#F7F8FA"></path><path class="st2" d="M38.1,5.3c0-1.6-1.3-2.8-2.8-2.8h-6.6c-1.6,0-2.8,1.3-2.8,2.8v4.4h12.2V5.3z M36.2,7.8h-8.4V5.3
			c0-0.5,0.4-0.9,0.9-0.9h6.6c0.5,0,0.9,0.4,0.9,0.9V7.8z" fill="#F7F8FA"></path><path class="st2" d="M36.4,38.5h-9.1c-0.3,0-0.6,0.3-0.6,0.6c0,0.3,0.3,0.6,0.6,0.6h9.1c0.3,0,0.6-0.3,0.6-0.6
			C37,38.8,36.7,38.5,36.4,38.5z" fill="#F7F8FA"></path><path class="st2" d="M36.4,43.2h-9.1c-0.3,0-0.6,0.3-0.6,0.6c0,0.3,0.3,0.6,0.6,0.6h9.1c0.3,0,0.6-0.3,0.6-0.6
			C37,43.5,36.7,43.2,36.4,43.2z" fill="#F7F8FA"></path><path class="st2" d="M36.4,47.9h-9.1c-0.3,0-0.6,0.3-0.6,0.6c0,0.3,0.3,0.6,0.6,0.6h9.1c0.3,0,0.6-0.3,0.6-0.6
			C37,48.1,36.7,47.9,36.4,47.9z" fill="#F7F8FA"></path><path class="st2" d="M36.4,52.6h-9.1c-0.3,0-0.6,0.3-0.6,0.6c0,0.3,0.3,0.6,0.6,0.6h9.1c0.3,0,0.6-0.3,0.6-0.6
			C37,52.8,36.7,52.6,36.4,52.6z" fill="#F7F8FA"></path></g></g></svg>