<svg version="1.1" xmlns="http://www.w3.org/2000/svg" xmlns:xlink="http://www.w3.org/1999/xlink" x="0px" y="0px" viewBox="0 0 64 64" xml:space="preserve" class="list-icon" width="64"  height="64" ><style type="text/css" fill="#CBC6BF">.st0{display: none}</style><style class="darkreader darkreader--sync" media="screen" fill="#CBC6BF"></style><g class="st0" id="Layer_2" fill="#CBC6BF"><rect class="st1" width="64" height="64" fill="#CBC6BF"></rect></g><g id="Layer_1" fill="#CBC6BF"><path class="st2" d="M44.7,58l-9.9-3.1l0-12.2c13.8-2,13.7-13.8,13.7-14.6c0-8.4-6.7-23.3-7-23.9l-0.2-0.6H22.8l-0.2,0.6
		c-0.3,0.6-7,15.5-7,23.9c0,0.7-0.1,12.3,13.6,14.5l0,12.3c-1.6,0.5-4.4,1.4-6.9,2.2c-1.1,0.3-2.2,0.7-3,0.9
		c-0.6,0.2-0.9,0.8-0.8,1.4c0.1,0.6,0.6,1.1,1.3,1.1l24.7,0c0.6,0,1.1-0.4,1.2-1C45.7,58.8,45.3,58.2,44.7,58z M23.7,58.6
		c2.7-0.8,5.4-1.7,6.7-2.1l0.6-0.2l0-15.3l-0.8-0.1c-13.1-1.7-12.8-12.3-12.8-12.7l0,0c0-7.1,5.4-19.8,6.6-22.6h16
		c1.2,2.8,6.6,15.5,6.6,22.6l0,0c0,0.5,0.3,11.3-12.8,12.8L32.9,41l0,15.3l7.4,2.3L23.7,58.6z" fill="#CBC6BF"></path></g></svg>